<svg version="1" xmlns="http://www.w3.org/2000/svg" width="933.333" height="933.333" viewBox="0 0 700.000000 700.000000"><path d="M325 .7c-17.7 1.6-29.6 3.3-49.5 6.8-6.8 1.3-29.8 7.6-40.5 11.3-22.4 7.6-49.8 20.4-66 30.6-46.4 29.5-76.9 58-106.6 99.8-4.6 6.5-8.4 12-8.4 12.2 0 .1-2.6 4.5-5.7 9.7-20.6 34.3-36.8 78.1-42.9 116.5-.3 2-.7 4.5-.9 5.4-.2 1-.6 4-1 6.7-.4 2.6-.9 5.9-1.1 7.3-1.8 11.6-2.6 59.9-1.1 73 .4 3.6 1 8.7 1.3 11.5 3.2 28.9 13.8 67.7 26 95.5C79 601.8 189.1 686.6 303.5 698.7c13.9 1.5 46 .8 57-1.2 27.8-5.1 48.2-21.1 60.1-47.1 5.6-12.3 7.7-22.4 7.8-36.9.1-16.6-2.2-26.2-10.8-44.6-6.3-13.5-8.1-22.3-8.1-39.4 0-11.1.5-16.6 1.8-21.3 8.8-32 32.1-56.9 61.9-66 14-4.3 16.7-4.5 84.3-4.7 63.8-.2 65.2-.2 74-2.4 33.7-8.5 59.6-35.5 66.6-69.6 1.6-7.5 1.8-12.2 1.5-28-.3-10.5-.7-19.7-1-20.5-.2-.8-.7-4.2-1.1-7.5-1.3-13.8-3.7-27.2-7.6-43.2-18-73.5-59.6-139.3-118.4-187.4-31.7-26-68.2-46.3-108.5-60.3-7.3-2.6-29.9-9-35-10-2.3-.4-8.7-1.7-15-3.1-1.4-.2-4.3-.7-6.5-1-2.2-.3-4.9-.7-6-.9-1.1-.2-4.9-.7-8.5-1.1-3.6-.4-8.1-1-10-1.2-4.5-.5-52.4-1-57-.6zm35.8 88.2c14.7 4 26.7 15.3 30.8 29 8.4 28.5-12.1 56.9-41.2 56.9-38.3 0-58.2-44.9-32.4-73.1 10.6-11.6 27.9-16.8 42.8-12.8zm-175.3 87.5c23.4 6.2 37.1 28.8 32 52.7-2.2 10.5-12.3 23.2-22.5 28.4-24.1 12.2-53.2.2-61.6-25.5-2.4-7.4-2.4-19.8 0-27 7.2-21.4 30.7-34.4 52.1-28.6zm348.2-.4c13.9 2.9 24.5 11.3 30.6 24.2 1.9 4 3.5 8 3.5 8.8 0 .8.3 3.5.6 6 1.4 11.7-3.5 25.1-12.4 34.1-17.6 17.7-44.4 17.7-62 0-14.1-14.1-16.6-35.4-6.4-52.9 5.4-9.2 17.3-18.1 26.5-19.7 1.8-.3 3.5-.7 3.6-.9.8-.8 11.3-.5 16 .4zM146.4 352.9c11.4 4 21.8 14.6 26.2 26.5 1.3 3.5 1.9 7.8 1.9 13.6 0 10.1-.5 12.6-4.4 20.5-13.1 26.4-49 31.9-69.8 10.8-22.8-23.2-13.6-61.4 17.5-71.9 8.5-2.9 19.8-2.7 28.6.5z"/></svg>